<?xml version="1.0" encoding="iso-8859-1"?>
<!-- Uploaded to: SVG Repo, www.svgrepo.com, Generator: SVG Repo Mixer Tools -->
<svg fill="#000000" height="800px" width="800px" version="1.1" id="Layer_1" xmlns="http://www.w3.org/2000/svg" xmlns:xlink="http://www.w3.org/1999/xlink" 
	 viewBox="0 0 512 512" xml:space="preserve">
<g>
	<g>
		<path d="M333.403,321.474V190.486h-11.908V41.676c0-15.143-8.228-29.111-21.474-36.453c-13.245-7.342-29.45-6.917-42.295,1.11
			l-47.632,29.77c-12.265,7.666-19.589,20.878-19.589,35.343v119.041h-11.908v130.987h-11.908V512h178.619V321.474H333.403z
			 M226.232,71.445c0-2.066,1.046-3.955,2.798-5.049l47.632-29.77c2.588-1.617,4.896-0.794,6.042-0.158
			c1.146,0.635,3.068,2.156,3.068,5.208v148.811h-59.54V71.445z M214.324,226.21h83.355v95.263h-83.355V226.21z M309.587,476.276
			H202.416V357.197h107.171V476.276z"/>
	</g>
</g>
</svg>